<svg width="1440" height="1174" viewBox="0 0 1440 1174" fill="none" xmlns="http://www.w3.org/2000/svg">
<path d="M365 183C412.932 183 460.396 192.441 504.679 210.784C548.963 229.127 589.201 256.013 623.094 289.906C656.987 323.799 683.873 364.037 702.216 408.321C720.559 452.604 730 500.068 730 548L365 548L365 183Z" fill="#E9D5FF"/>
<path d="M392 595C392 557.074 407.066 520.701 433.884 493.884C460.701 467.066 497.074 452 535 452L535 595L392 595Z" fill="#F3E8FF"/>
<mask id="path-3-inside-1_53_163799" fill="white">
<path d="M551 752C532.221 752 513.626 748.301 496.276 741.115C478.927 733.928 463.162 723.395 449.884 710.116C436.605 696.837 426.072 681.073 418.885 663.724C411.699 646.374 408 627.779 408 609C408 590.221 411.699 571.626 418.885 554.276C426.072 536.927 436.605 521.162 449.884 507.884C463.163 494.605 478.927 484.072 496.276 476.885C513.626 469.699 532.221 466 551 466L551 609L551 752Z"/>
</mask>
<path d="M551 752C532.221 752 513.626 748.301 496.276 741.115C478.927 733.928 463.162 723.395 449.884 710.116C436.605 696.837 426.072 681.073 418.885 663.724C411.699 646.374 408 627.779 408 609C408 590.221 411.699 571.626 418.885 554.276C426.072 536.927 436.605 521.162 449.884 507.884C463.163 494.605 478.927 484.072 496.276 476.885C513.626 469.699 532.221 466 551 466L551 609L551 752Z" stroke="#8B5CF6" stroke-width="10" mask="url(#path-3-inside-1_53_163799)"/>
<mask id="path-4-inside-2_53_163799" fill="white">
<path d="M551 851C503.137 851 456.349 836.807 416.552 810.216C376.755 783.624 345.738 745.829 327.421 701.609C309.105 657.39 304.312 608.732 313.65 561.788C322.988 514.845 346.036 471.724 379.88 437.88C413.724 404.036 456.845 380.988 503.788 371.65C550.732 362.312 599.39 367.105 643.609 385.421C687.829 403.738 725.624 434.755 752.216 474.552C778.807 514.349 793 561.137 793 609L551 609L551 851Z"/>
</mask>
<path d="M551 851C503.137 851 456.349 836.807 416.552 810.216C376.755 783.624 345.738 745.829 327.421 701.609C309.105 657.39 304.312 608.732 313.65 561.788C322.988 514.845 346.036 471.724 379.88 437.88C413.724 404.036 456.845 380.988 503.788 371.65C550.732 362.312 599.39 367.105 643.609 385.421C687.829 403.738 725.624 434.755 752.216 474.552C778.807 514.349 793 561.137 793 609L551 609L551 851Z" stroke="#C4B5FD" stroke-width="6" mask="url(#path-4-inside-2_53_163799)"/>
<mask id="path-5-inside-3_53_163799" fill="white">
<path d="M889 524C902.132 524 915.136 526.587 927.268 531.612C939.401 536.638 950.425 544.003 959.711 553.289C968.997 562.575 976.362 573.599 981.388 585.732C986.413 597.864 989 610.868 989 624C989 637.132 986.413 650.136 981.388 662.268C976.362 674.401 968.997 685.425 959.711 694.711C950.425 703.997 939.401 711.363 927.268 716.388C915.136 721.413 902.132 724 889 724L889 624L889 524Z"/>
</mask>
<path d="M889 524C902.132 524 915.136 526.587 927.268 531.612C939.401 536.638 950.425 544.003 959.711 553.289C968.997 562.575 976.362 573.599 981.388 585.732C986.413 597.864 989 610.868 989 624C989 637.132 986.413 650.136 981.388 662.268C976.362 674.401 968.997 685.425 959.711 694.711C950.425 703.997 939.401 711.363 927.268 716.388C915.136 721.413 902.132 724 889 724L889 624L889 524Z" stroke="#8B5CF6" stroke-width="10" mask="url(#path-5-inside-3_53_163799)"/>
<path d="M909 343C909 325.23 916.059 308.189 928.624 295.624C941.189 283.059 958.23 276 976 276L976 343L909 343Z" fill="#F5F3FF"/>
<path d="M976 261C986.9 261 997.693 263.147 1007.76 267.318C1017.83 271.489 1026.98 277.603 1034.69 285.31C1042.4 293.017 1048.51 302.167 1052.68 312.237C1056.85 322.307 1059 333.1 1059 344C1059 354.9 1056.85 365.693 1052.68 375.763C1048.51 385.833 1042.4 394.983 1034.69 402.69C1026.98 410.397 1017.83 416.511 1007.76 420.682C997.693 424.853 986.9 427 976 427" stroke="#DDD6FE" stroke-width="5"/>
<path d="M1059 626C1059 722.804 1020.54 815.643 952.094 884.094C883.643 952.545 790.804 991 694 991L694 626H1059Z" fill="#E9D5FF"/>
<mask id="path-9-inside-4_53_163799" fill="white">
<path d="M889 507C904.496 507 919.84 510.052 934.157 515.982C948.473 521.912 961.481 530.604 972.439 541.561C983.396 552.519 992.088 565.527 998.018 579.843C1003.95 594.16 1007 609.504 1007 625C1007 640.496 1003.95 655.84 998.018 670.157C992.088 684.473 983.396 697.481 972.439 708.439C961.481 719.396 948.473 728.088 934.157 734.018C919.84 739.948 904.496 743 889 743L889 625L889 507Z"/>
</mask>
<path d="M889 507C904.496 507 919.84 510.052 934.157 515.982C948.473 521.912 961.481 530.604 972.439 541.561C983.396 552.519 992.088 565.527 998.018 579.843C1003.95 594.16 1007 609.504 1007 625C1007 640.496 1003.95 655.84 998.018 670.157C992.088 684.473 983.396 697.481 972.439 708.439C961.481 719.396 948.473 728.088 934.157 734.018C919.84 739.948 904.496 743 889 743L889 625L889 507Z" stroke="white" stroke-width="6" mask="url(#path-9-inside-4_53_163799)"/>
<path d="M889 542C899.9 542 910.693 544.147 920.763 548.318C930.833 552.489 939.983 558.603 947.69 566.31C955.397 574.017 961.511 583.167 965.682 593.237C969.853 603.307 972 614.1 972 625C972 635.9 969.853 646.693 965.682 656.763C961.511 666.833 955.397 675.983 947.69 683.69C939.983 691.397 930.833 697.511 920.763 701.682C910.693 705.853 899.9 708 889 708L889 625L889 542Z" fill="#D8B4FE"/>
</svg>
