<svg width="1440" height="1174" viewBox="0 0 1440 1174" fill="none" xmlns="http://www.w3.org/2000/svg">
<path d="M703 197C750.932 197 798.396 206.441 842.679 224.784C886.963 243.127 927.201 270.013 961.094 303.906C994.987 337.799 1021.87 378.037 1040.22 422.321C1058.56 466.604 1068 514.068 1068 562L703 562L703 197Z" fill="#5B21B6"/>
<path d="M966 609C966 571.074 950.934 534.701 924.116 507.884C897.299 481.066 860.926 466 823 466L823 609L966 609Z" fill="#4C1D95"/>
<mask id="path-3-inside-1_53_163799" fill="white">
<path d="M807 766C825.779 766 844.374 762.301 861.724 755.115C879.073 747.928 894.838 737.395 908.116 724.116C921.395 710.837 931.928 695.073 939.115 677.724C946.301 660.374 950 641.779 950 623C950 604.221 946.301 585.626 939.115 568.276C931.928 550.927 921.395 535.162 908.116 521.884C894.837 508.605 879.073 498.072 861.724 490.885C844.374 483.699 825.779 480 807 480L807 623L807 766Z"/>
</mask>
<path d="M807 766C825.779 766 844.374 762.301 861.724 755.115C879.073 747.928 894.838 737.395 908.116 724.116C921.395 710.837 931.928 695.073 939.115 677.724C946.301 660.374 950 641.779 950 623C950 604.221 946.301 585.626 939.115 568.276C931.928 550.927 921.395 535.162 908.116 521.884C894.837 508.605 879.073 498.072 861.724 490.885C844.374 483.699 825.779 480 807 480L807 623L807 766Z" stroke="#6D28D9" stroke-width="10" mask="url(#path-3-inside-1_53_163799)"/>
<mask id="path-4-inside-2_53_163799" fill="white">
<path d="M807 865C854.863 865 901.651 850.807 941.448 824.216C981.245 797.624 1012.26 759.829 1030.58 715.609C1048.9 671.39 1053.69 622.732 1044.35 575.788C1035.01 528.845 1011.96 485.724 978.12 451.88C944.276 418.036 901.155 394.988 854.212 385.65C807.268 376.312 758.61 381.105 714.391 399.421C670.171 417.738 632.376 448.755 605.784 488.552C579.193 528.349 565 575.137 565 623L807 623L807 865Z"/>
</mask>
<path d="M807 865C854.863 865 901.651 850.807 941.448 824.216C981.245 797.624 1012.26 759.829 1030.58 715.609C1048.9 671.39 1053.69 622.732 1044.35 575.788C1035.01 528.845 1011.96 485.724 978.12 451.88C944.276 418.036 901.155 394.988 854.212 385.65C807.268 376.312 758.61 381.105 714.391 399.421C670.171 417.738 632.376 448.755 605.784 488.552C579.193 528.349 565 575.137 565 623L807 623L807 865Z" stroke="#A78BFA" stroke-width="6" mask="url(#path-4-inside-2_53_163799)"/>
<path d="M732.994 974.046C685.062 973.776 637.653 964.068 593.474 945.475C549.294 926.883 509.209 899.771 475.507 865.687C441.805 831.603 415.147 791.215 397.054 746.828C378.961 702.441 369.788 654.926 370.058 606.994L735.052 609.052L732.994 974.046Z" fill="#5B21B6"/>
<path d="M472.323 560.568C472.109 598.494 486.97 634.951 513.636 661.919C540.302 688.888 576.589 704.158 614.514 704.372L615.321 561.375L472.323 560.568Z" fill="#4C1D95"/>
<mask id="path-7-inside-3_53_163799" fill="white">
<path d="M632.198 404.467C613.42 404.361 594.804 407.955 577.414 415.044C560.024 422.132 544.201 432.576 530.847 445.78C517.494 458.984 506.872 474.688 499.588 491.997C492.304 509.306 488.5 527.88 488.394 546.659C488.288 565.437 491.882 584.053 498.971 601.443C506.059 618.833 516.503 634.656 529.707 648.01C542.911 661.363 558.615 671.985 575.924 679.269C593.233 686.553 611.807 690.357 630.586 690.463L631.392 547.465L632.198 404.467Z"/>
</mask>
<path d="M632.198 404.467C613.42 404.361 594.804 407.955 577.414 415.044C560.024 422.132 544.201 432.576 530.847 445.78C517.494 458.984 506.872 474.688 499.588 491.997C492.304 509.306 488.5 527.88 488.394 546.659C488.288 565.437 491.882 584.053 498.971 601.443C506.059 618.833 516.503 634.656 529.707 648.01C542.911 661.363 558.615 671.985 575.924 679.269C593.233 686.553 611.807 690.357 630.586 690.463L631.392 547.465L632.198 404.467Z" stroke="#6D28D9" stroke-width="10" mask="url(#path-7-inside-3_53_163799)"/>
<mask id="path-8-inside-4_53_163799" fill="white">
<path d="M632.763 305.469C584.901 305.199 538.033 319.128 498.087 345.495C458.141 371.861 426.911 409.481 408.346 453.597C389.78 497.713 384.714 546.343 393.786 593.338C402.859 640.334 425.664 683.583 459.317 717.618C492.97 751.652 535.959 774.943 582.849 784.546C629.739 794.148 678.424 789.63 722.746 771.563C767.068 753.496 805.038 722.692 831.853 683.046C858.668 643.4 873.125 596.692 873.395 548.83L631.399 547.465L632.763 305.469Z"/>
</mask>
<path d="M632.763 305.469C584.901 305.199 538.033 319.128 498.087 345.495C458.141 371.861 426.911 409.481 408.346 453.597C389.78 497.713 384.714 546.343 393.786 593.338C402.859 640.334 425.664 683.583 459.317 717.618C492.97 751.652 535.959 774.943 582.849 784.546C629.739 794.148 678.424 789.63 722.746 771.563C767.068 753.496 805.038 722.692 831.853 683.046C858.668 643.4 873.125 596.692 873.395 548.83L631.399 547.465L632.763 305.469Z" stroke="#A78BFA" stroke-width="6" mask="url(#path-8-inside-4_53_163799)"/>
</svg>
