<svg width="1440" height="1105" viewBox="0 0 1440 1105" fill="none" xmlns="http://www.w3.org/2000/svg">
<g clip-path="url(#clip0_53_163799)">
<path d="M4.35258e-06 197C47.9325 197 95.3956 206.441 139.679 224.784C183.963 243.127 224.201 270.013 258.094 303.906C291.987 337.799 318.873 378.037 337.216 422.321C355.559 466.604 365 514.068 365 562L0 562L4.35258e-06 197Z" fill="#E9D5FF"/>
<path d="M27 609C27 571.074 42.066 534.701 68.8837 507.884C95.7014 481.066 132.074 466 170 466V609L27 609Z" fill="#F3E8FF"/>
<mask id="path-3-inside-1_53_163799" fill="white">
<path d="M186 766C167.221 766 148.626 762.301 131.276 755.115C113.927 747.928 98.1625 737.395 84.8837 724.116C71.6049 710.837 61.0716 695.073 53.8852 677.724C46.6988 660.374 43 641.779 43 623C43 604.221 46.6988 585.626 53.8852 568.276C61.0717 550.927 71.605 535.162 84.8838 521.884C98.1626 508.605 113.927 498.072 131.276 490.885C148.626 483.699 167.221 480 186 480L186 623V766Z"/>
</mask>
<path d="M186 766C167.221 766 148.626 762.301 131.276 755.115C113.927 747.928 98.1625 737.395 84.8837 724.116C71.6049 710.837 61.0716 695.073 53.8852 677.724C46.6988 660.374 43 641.779 43 623C43 604.221 46.6988 585.626 53.8852 568.276C61.0717 550.927 71.605 535.162 84.8838 521.884C98.1626 508.605 113.927 498.072 131.276 490.885C148.626 483.699 167.221 480 186 480L186 623V766Z" stroke="#8B5CF6" stroke-width="10" mask="url(#path-3-inside-1_53_163799)"/>
<mask id="path-4-inside-2_53_163799" fill="white">
<path d="M186 865C138.137 865 91.3487 850.807 51.552 824.216C11.7553 797.624 -19.2625 759.829 -37.5789 715.609C-55.8953 671.39 -60.6877 622.732 -51.35 575.788C-42.0124 528.845 -18.9641 485.724 14.8802 451.88C48.7245 418.036 91.8448 394.988 138.788 385.65C185.732 376.312 234.39 381.105 278.609 399.421C322.829 417.738 360.624 448.755 387.216 488.552C413.807 528.349 428 575.137 428 623L186 623L186 865Z"/>
</mask>
<path d="M186 865C138.137 865 91.3487 850.807 51.552 824.216C11.7553 797.624 -19.2625 759.829 -37.5789 715.609C-55.8953 671.39 -60.6877 622.732 -51.35 575.788C-42.0124 528.845 -18.9641 485.724 14.8802 451.88C48.7245 418.036 91.8448 394.988 138.788 385.65C185.732 376.312 234.39 381.105 278.609 399.421C322.829 417.738 360.624 448.755 387.216 488.552C413.807 528.349 428 575.137 428 623L186 623L186 865Z" stroke="#C4B5FD" stroke-width="6" mask="url(#path-4-inside-2_53_163799)"/>
<mask id="path-5-inside-3_53_163799" fill="white">
<path d="M1304 549C1317.13 549 1330.14 551.587 1342.27 556.612C1354.4 561.638 1365.42 569.003 1374.71 578.289C1384 587.575 1391.36 598.599 1396.39 610.732C1401.41 622.864 1404 635.868 1404 649C1404 662.132 1401.41 675.136 1396.39 687.268C1391.36 699.401 1384 710.425 1374.71 719.711C1365.42 728.997 1354.4 736.363 1342.27 741.388C1330.14 746.413 1317.13 749 1304 749L1304 649V549Z"/>
</mask>
<path d="M1304 549C1317.13 549 1330.14 551.587 1342.27 556.612C1354.4 561.638 1365.42 569.003 1374.71 578.289C1384 587.575 1391.36 598.599 1396.39 610.732C1401.41 622.864 1404 635.868 1404 649C1404 662.132 1401.41 675.136 1396.39 687.268C1391.36 699.401 1384 710.425 1374.71 719.711C1365.42 728.997 1354.4 736.363 1342.27 741.388C1330.14 746.413 1317.13 749 1304 749L1304 649V549Z" stroke="#8B5CF6" stroke-width="10" mask="url(#path-5-inside-3_53_163799)"/>
<path d="M1290 366C1290 348.23 1297.06 331.189 1309.62 318.624C1322.19 306.059 1339.23 299 1357 299V366L1290 366Z" fill="#F5F3FF"/>
<path d="M1357 284C1367.9 284 1378.69 286.147 1388.76 290.318C1398.83 294.489 1407.98 300.603 1415.69 308.31C1423.4 316.017 1429.51 325.167 1433.68 335.237C1437.85 345.307 1440 356.1 1440 367C1440 377.9 1437.85 388.693 1433.68 398.763C1429.51 408.833 1423.4 417.983 1415.69 425.69C1407.98 433.397 1398.83 439.511 1388.76 443.682C1378.69 447.853 1367.9 450 1357 450" stroke="#DDD6FE" stroke-width="5"/>
<path d="M1440 649C1440 745.804 1401.54 838.643 1333.09 907.094C1264.64 975.545 1171.8 1014 1075 1014L1075 649H1440Z" fill="#E9D5FF"/>
<mask id="path-9-inside-4_53_163799" fill="white">
<path d="M1304 532C1319.5 532 1334.84 535.052 1349.16 540.982C1363.47 546.912 1376.48 555.604 1387.44 566.561C1398.4 577.519 1407.09 590.527 1413.02 604.843C1418.95 619.16 1422 634.504 1422 650C1422 665.496 1418.95 680.84 1413.02 695.157C1407.09 709.473 1398.4 722.481 1387.44 733.439C1376.48 744.396 1363.47 753.088 1349.16 759.018C1334.84 764.948 1319.5 768 1304 768L1304 650V532Z"/>
</mask>
<path d="M1304 532C1319.5 532 1334.84 535.052 1349.16 540.982C1363.47 546.912 1376.48 555.604 1387.44 566.561C1398.4 577.519 1407.09 590.527 1413.02 604.843C1418.95 619.16 1422 634.504 1422 650C1422 665.496 1418.95 680.84 1413.02 695.157C1407.09 709.473 1398.4 722.481 1387.44 733.439C1376.48 744.396 1363.47 753.088 1349.16 759.018C1334.84 764.948 1319.5 768 1304 768L1304 650V532Z" stroke="white" stroke-width="6" mask="url(#path-9-inside-4_53_163799)"/>
<path d="M1304 567C1314.9 567 1325.69 569.147 1335.76 573.318C1345.83 577.489 1354.98 583.603 1362.69 591.31C1370.4 599.017 1376.51 608.167 1380.68 618.237C1384.85 628.307 1387 639.1 1387 650C1387 660.9 1384.85 671.693 1380.68 681.763C1376.51 691.833 1370.4 700.983 1362.69 708.69C1354.98 716.397 1345.83 722.511 1335.76 726.682C1325.69 730.853 1314.9 733 1304 733L1304 650V567Z" fill="#D8B4FE"/>
</g>
<defs>
<clipPath id="clip0_53_163799">
<rect width="1440" height="1105" fill="white"/>
</clipPath>
</defs>
</svg>
