<svg width="1440" height="1061" viewBox="0 0 1440 1061" fill="none" xmlns="http://www.w3.org/2000/svg">
<g clip-path="url(#clip0_53_163799)">
<path d="M4.35258e-06 197C47.9325 197 95.3956 206.441 139.679 224.784C183.963 243.127 224.201 270.013 258.094 303.906C291.987 337.799 318.873 378.037 337.216 422.321C355.559 466.604 365 514.068 365 562L0 562L4.35258e-06 197Z" fill="#E9D5FF"/>
<path d="M27 609C27 571.074 42.066 534.701 68.8837 507.884C95.7014 481.066 132.074 466 170 466L170 609L27 609Z" fill="#F3E8FF"/>
<mask id="path-3-inside-1_53_163799" fill="white">
<path d="M186 766C167.221 766 148.626 762.301 131.276 755.115C113.927 747.928 98.1625 737.395 84.8837 724.116C71.6049 710.837 61.0716 695.073 53.8852 677.724C46.6988 660.374 43 641.779 43 623C43 604.221 46.6988 585.626 53.8852 568.276C61.0717 550.927 71.605 535.162 84.8838 521.884C98.1626 508.605 113.927 498.072 131.276 490.885C148.626 483.699 167.221 480 186 480L186 623L186 766Z"/>
</mask>
<path d="M186 766C167.221 766 148.626 762.301 131.276 755.115C113.927 747.928 98.1625 737.395 84.8837 724.116C71.6049 710.837 61.0716 695.073 53.8852 677.724C46.6988 660.374 43 641.779 43 623C43 604.221 46.6988 585.626 53.8852 568.276C61.0717 550.927 71.605 535.162 84.8838 521.884C98.1626 508.605 113.927 498.072 131.276 490.885C148.626 483.699 167.221 480 186 480L186 623L186 766Z" stroke="#8B5CF6" stroke-width="10" mask="url(#path-3-inside-1_53_163799)"/>
<mask id="path-4-inside-2_53_163799" fill="white">
<path d="M186 865C138.137 865 91.3487 850.807 51.552 824.216C11.7553 797.624 -19.2624 759.829 -37.5789 715.609C-55.8953 671.39 -60.6877 622.732 -51.35 575.788C-42.0124 528.845 -18.9641 485.724 14.8802 451.88C48.7245 418.036 91.8448 394.988 138.788 385.65C185.732 376.312 234.39 381.105 278.609 399.421C322.829 417.738 360.624 448.755 387.216 488.552C413.807 528.349 428 575.137 428 623L186 623L186 865Z"/>
</mask>
<path d="M186 865C138.137 865 91.3487 850.807 51.552 824.216C11.7553 797.624 -19.2624 759.829 -37.5789 715.609C-55.8953 671.39 -60.6877 622.732 -51.35 575.788C-42.0124 528.845 -18.9641 485.724 14.8802 451.88C48.7245 418.036 91.8448 394.988 138.788 385.65C185.732 376.312 234.39 381.105 278.609 399.421C322.829 417.738 360.624 448.755 387.216 488.552C413.807 528.349 428 575.137 428 623L186 623L186 865Z" stroke="#C4B5FD" stroke-width="6" mask="url(#path-4-inside-2_53_163799)"/>
<mask id="path-5-inside-3_53_163799" fill="white">
<path d="M1270 547C1283.13 547 1296.14 549.587 1308.27 554.612C1320.4 559.638 1331.42 567.003 1340.71 576.289C1350 585.575 1357.36 596.599 1362.39 608.732C1367.41 620.864 1370 633.868 1370 647C1370 660.132 1367.41 673.136 1362.39 685.268C1357.36 697.401 1350 708.425 1340.71 717.711C1331.42 726.997 1320.4 734.363 1308.27 739.388C1296.14 744.413 1283.13 747 1270 747L1270 647L1270 547Z"/>
</mask>
<path d="M1270 547C1283.13 547 1296.14 549.587 1308.27 554.612C1320.4 559.638 1331.42 567.003 1340.71 576.289C1350 585.575 1357.36 596.599 1362.39 608.732C1367.41 620.864 1370 633.868 1370 647C1370 660.132 1367.41 673.136 1362.39 685.268C1357.36 697.401 1350 708.425 1340.71 717.711C1331.42 726.997 1320.4 734.363 1308.27 739.388C1296.14 744.413 1283.13 747 1270 747L1270 647L1270 547Z" stroke="#8B5CF6" stroke-width="10" mask="url(#path-5-inside-3_53_163799)"/>
<path d="M1290 366C1290 348.23 1297.06 331.189 1309.62 318.624C1322.19 306.059 1339.23 299 1357 299L1357 366L1290 366Z" fill="#F5F3FF"/>
<path d="M1357 284C1367.9 284 1378.69 286.147 1388.76 290.318C1398.83 294.489 1407.98 300.603 1415.69 308.31C1423.4 316.017 1429.51 325.167 1433.68 335.237C1437.85 345.307 1440 356.1 1440 367C1440 377.9 1437.85 388.693 1433.68 398.763C1429.51 408.833 1423.4 417.983 1415.69 425.69C1407.98 433.397 1398.83 439.511 1388.76 443.682C1378.69 447.853 1367.9 450 1357 450" stroke="#DDD6FE" stroke-width="5"/>
<path d="M1440 649C1440 745.804 1401.54 838.643 1333.09 907.094C1264.64 975.545 1171.8 1014 1075 1014L1075 649H1440Z" fill="#E9D5FF"/>
<mask id="path-9-inside-4_53_163799" fill="white">
<path d="M1270 530C1285.5 530 1300.84 533.052 1315.16 538.982C1329.47 544.912 1342.48 553.604 1353.44 564.561C1364.4 575.519 1373.09 588.527 1379.02 602.843C1384.95 617.16 1388 632.504 1388 648C1388 663.496 1384.95 678.84 1379.02 693.157C1373.09 707.473 1364.4 720.481 1353.44 731.439C1342.48 742.396 1329.47 751.088 1315.16 757.018C1300.84 762.948 1285.5 766 1270 766L1270 648L1270 530Z"/>
</mask>
<path d="M1270 530C1285.5 530 1300.84 533.052 1315.16 538.982C1329.47 544.912 1342.48 553.604 1353.44 564.561C1364.4 575.519 1373.09 588.527 1379.02 602.843C1384.95 617.16 1388 632.504 1388 648C1388 663.496 1384.95 678.84 1379.02 693.157C1373.09 707.473 1364.4 720.481 1353.44 731.439C1342.48 742.396 1329.47 751.088 1315.16 757.018C1300.84 762.948 1285.5 766 1270 766L1270 648L1270 530Z" stroke="white" stroke-width="6" mask="url(#path-9-inside-4_53_163799)"/>
<path d="M1270 565C1280.9 565 1291.69 567.147 1301.76 571.318C1311.83 575.489 1320.98 581.603 1328.69 589.31C1336.4 597.017 1342.51 606.167 1346.68 616.237C1350.85 626.307 1353 637.1 1353 648C1353 658.9 1350.85 669.693 1346.68 679.763C1342.51 689.833 1336.4 698.983 1328.69 706.69C1320.98 714.397 1311.83 720.511 1301.76 724.682C1291.69 728.853 1280.9 731 1270 731L1270 648L1270 565Z" fill="#D8B4FE"/>
</g>
<defs>
<clipPath id="clip0_53_163799">
<rect width="1440" height="1061" fill="white"/>
</clipPath>
</defs>
</svg>
