<svg width="1440" height="1055" viewBox="0 0 1440 1055" fill="none" xmlns="http://www.w3.org/2000/svg">
<g clip-path="url(#clip0_53_163799)">
<path d="M4.35258e-06 197C47.9325 197 95.3956 206.441 139.679 224.784C183.963 243.127 224.201 270.013 258.094 303.906C291.987 337.799 318.873 378.037 337.216 422.321C355.559 466.604 365 514.068 365 562L0 562L4.35258e-06 197Z" fill="#E9D5FF"/>
<path d="M27 609C27 571.074 42.066 534.701 68.8837 507.884C95.7014 481.066 132.074 466 170 466V609L27 609Z" fill="#F3E8FF"/>
<mask id="path-3-inside-1_53_163799" fill="white">
<path d="M186 766C167.221 766 148.626 762.301 131.276 755.115C113.927 747.928 98.1625 737.395 84.8837 724.116C71.6049 710.837 61.0716 695.073 53.8852 677.724C46.6988 660.374 43 641.779 43 623C43 604.221 46.6988 585.626 53.8852 568.276C61.0717 550.927 71.605 535.162 84.8838 521.884C98.1626 508.605 113.927 498.072 131.276 490.885C148.626 483.699 167.221 480 186 480L186 623V766Z"/>
</mask>
<path d="M186 766C167.221 766 148.626 762.301 131.276 755.115C113.927 747.928 98.1625 737.395 84.8837 724.116C71.6049 710.837 61.0716 695.073 53.8852 677.724C46.6988 660.374 43 641.779 43 623C43 604.221 46.6988 585.626 53.8852 568.276C61.0717 550.927 71.605 535.162 84.8838 521.884C98.1626 508.605 113.927 498.072 131.276 490.885C148.626 483.699 167.221 480 186 480L186 623V766Z" stroke="#8B5CF6" stroke-width="10" mask="url(#path-3-inside-1_53_163799)"/>
<mask id="path-4-inside-2_53_163799" fill="white">
<path d="M186 865C138.137 865 91.3487 850.807 51.552 824.216C11.7553 797.624 -19.2625 759.829 -37.5789 715.609C-55.8953 671.39 -60.6877 622.732 -51.35 575.788C-42.0124 528.845 -18.9641 485.724 14.8802 451.88C48.7245 418.036 91.8448 394.988 138.788 385.65C185.732 376.312 234.39 381.105 278.609 399.421C322.829 417.738 360.624 448.755 387.216 488.552C413.807 528.349 428 575.137 428 623L186 623L186 865Z"/>
</mask>
<path d="M186 865C138.137 865 91.3487 850.807 51.552 824.216C11.7553 797.624 -19.2625 759.829 -37.5789 715.609C-55.8953 671.39 -60.6877 622.732 -51.35 575.788C-42.0124 528.845 -18.9641 485.724 14.8802 451.88C48.7245 418.036 91.8448 394.988 138.788 385.65C185.732 376.312 234.39 381.105 278.609 399.421C322.829 417.738 360.624 448.755 387.216 488.552C413.807 528.349 428 575.137 428 623L186 623L186 865Z" stroke="#C4B5FD" stroke-width="6" mask="url(#path-4-inside-2_53_163799)"/>
<mask id="path-5-inside-3_53_163799" fill="white">
<path d="M1270 549C1283.13 549 1296.14 551.587 1308.27 556.612C1320.4 561.638 1331.42 569.003 1340.71 578.289C1350 587.575 1357.36 598.599 1362.39 610.732C1367.41 622.864 1370 635.868 1370 649C1370 662.132 1367.41 675.136 1362.39 687.268C1357.36 699.401 1350 710.425 1340.71 719.711C1331.42 728.997 1320.4 736.363 1308.27 741.388C1296.14 746.413 1283.13 749 1270 749L1270 649V549Z"/>
</mask>
<path d="M1270 549C1283.13 549 1296.14 551.587 1308.27 556.612C1320.4 561.638 1331.42 569.003 1340.71 578.289C1350 587.575 1357.36 598.599 1362.39 610.732C1367.41 622.864 1370 635.868 1370 649C1370 662.132 1367.41 675.136 1362.39 687.268C1357.36 699.401 1350 710.425 1340.71 719.711C1331.42 728.997 1320.4 736.363 1308.27 741.388C1296.14 746.413 1283.13 749 1270 749L1270 649V549Z" stroke="#8B5CF6" stroke-width="10" mask="url(#path-5-inside-3_53_163799)"/>
<path d="M1246 374C1246 356.23 1253.06 339.189 1265.62 326.624C1278.19 314.059 1295.23 307 1313 307V374L1246 374Z" fill="#F5F3FF"/>
<path d="M1313 292C1323.9 292 1334.69 294.147 1344.76 298.318C1354.83 302.489 1363.98 308.603 1371.69 316.31C1379.4 324.017 1385.51 333.167 1389.68 343.237C1393.85 353.307 1396 364.1 1396 375C1396 385.9 1393.85 396.693 1389.68 406.763C1385.51 416.833 1379.4 425.983 1371.69 433.69C1363.98 441.397 1354.83 447.511 1344.76 451.682C1334.69 455.853 1323.9 458 1313 458" stroke="#DDD6FE" stroke-width="5"/>
<path d="M1406 649C1406 745.804 1367.54 838.643 1299.09 907.094C1230.64 975.545 1137.8 1014 1041 1014L1041 649H1406Z" fill="#E9D5FF"/>
<mask id="path-9-inside-4_53_163799" fill="white">
<path d="M1270 532C1285.5 532 1300.84 535.052 1315.16 540.982C1329.47 546.912 1342.48 555.604 1353.44 566.561C1364.4 577.519 1373.09 590.527 1379.02 604.843C1384.95 619.16 1388 634.504 1388 650C1388 665.496 1384.95 680.84 1379.02 695.157C1373.09 709.473 1364.4 722.481 1353.44 733.439C1342.48 744.396 1329.47 753.088 1315.16 759.018C1300.84 764.948 1285.5 768 1270 768L1270 650V532Z"/>
</mask>
<path d="M1270 532C1285.5 532 1300.84 535.052 1315.16 540.982C1329.47 546.912 1342.48 555.604 1353.44 566.561C1364.4 577.519 1373.09 590.527 1379.02 604.843C1384.95 619.16 1388 634.504 1388 650C1388 665.496 1384.95 680.84 1379.02 695.157C1373.09 709.473 1364.4 722.481 1353.44 733.439C1342.48 744.396 1329.47 753.088 1315.16 759.018C1300.84 764.948 1285.5 768 1270 768L1270 650V532Z" stroke="white" stroke-width="6" mask="url(#path-9-inside-4_53_163799)"/>
<path d="M1270 567C1280.9 567 1291.69 569.147 1301.76 573.318C1311.83 577.489 1320.98 583.603 1328.69 591.31C1336.4 599.017 1342.51 608.167 1346.68 618.237C1350.85 628.307 1353 639.1 1353 650C1353 660.9 1350.85 671.693 1346.68 681.763C1342.51 691.833 1336.4 700.983 1328.69 708.69C1320.98 716.397 1311.83 722.511 1301.76 726.682C1291.69 730.853 1280.9 733 1270 733L1270 650V567Z" fill="#D8B4FE"/>
</g>
<defs>
<clipPath id="clip0_53_163799">
<rect width="1440" height="1055" fill="white"/>
</clipPath>
</defs>
</svg>
